<svg data-v-d3f97b9e="" xmlns="http://www.w3.org/2000/svg" viewBox="0 0 359.8095376208612 60"><!----><!----><!----><g data-v-d3f97b9e="" id="b18a8ae3-9f7e-4b17-80c8-24b3b784817a" fill="#000000" transform="matrix(4.761904617736313,0,0,4.761904617736313,-4.047620216554662,-19.95238014395636)"><path d="M6.29 14L6.29 14Q6.10 14 6.01 13.82L6.01 13.82L4.28 10.01L4.28 10.01Q4.26 9.94 4.19 9.94L4.19 9.94L2.91 9.94L2.91 9.94Q2.83 9.94 2.83 10.02L2.83 10.02L2.83 13.76L2.83 13.76Q2.83 14 2.59 14L2.59 14L1.09 14L1.09 14Q0.85 14 0.85 13.76L0.85 13.76L0.85 4.42L0.85 4.42Q0.85 4.19 1.09 4.19L1.09 4.19L5.03 4.19L5.03 4.19Q5.92 4.19 6.60 4.56L6.60 4.56L6.60 4.56Q7.28 4.93 7.65 5.60L7.65 5.60L7.65 5.60Q8.02 6.27 8.02 7.14L8.02 7.14L8.02 7.14Q8.02 8.09 7.55 8.78L7.55 8.78L7.55 8.78Q7.07 9.46 6.23 9.74L6.23 9.74L6.23 9.74Q6.19 9.76 6.17 9.79L6.17 9.79L6.17 9.79Q6.16 9.83 6.19 9.86L6.19 9.86L8.04 13.72L8.04 13.72Q8.08 13.78 8.08 13.85L8.08 13.85L8.08 13.85Q8.08 13.92 8.02 13.96L8.02 13.96L8.02 13.96Q7.97 14 7.87 14L7.87 14L6.29 14ZM2.91 5.89L2.91 5.89Q2.83 5.89 2.83 5.98L2.83 5.98L2.83 8.33L2.83 8.33Q2.83 8.41 2.91 8.41L2.91 8.41L4.73 8.41L4.73 8.41Q5.32 8.41 5.69 8.07L5.69 8.07L5.69 8.07Q6.06 7.73 6.06 7.17L6.06 7.17L6.06 7.17Q6.06 6.61 5.69 6.25L5.69 6.25L5.69 6.25Q5.32 5.89 4.73 5.89L4.73 5.89L2.91 5.89ZM12.21 6.69L12.21 6.69Q13.12 6.69 13.83 7.01L13.83 7.01L13.83 7.01Q14.55 7.32 14.95 7.87L14.95 7.87L14.95 7.87Q15.34 8.41 15.34 9.09L15.34 9.09L15.34 13.76L15.34 13.76Q15.34 14 15.11 14L15.11 14L13.61 14L13.61 14Q13.37 14 13.37 13.76L13.37 13.76L13.37 13.43L13.37 13.43Q13.37 13.37 13.34 13.36L13.34 13.36L13.34 13.36Q13.31 13.36 13.27 13.40L13.27 13.40L13.27 13.40Q12.63 14.11 11.35 14.11L11.35 14.11L11.35 14.11Q10.28 14.11 9.62 13.58L9.62 13.58L9.62 13.58Q8.96 13.05 8.96 12.01L8.96 12.01L8.96 12.01Q8.96 10.93 9.72 10.34L9.72 10.34L9.72 10.34Q10.47 9.74 11.87 9.74L11.87 9.74L13.29 9.74L13.29 9.74Q13.37 9.74 13.37 9.66L13.37 9.66L13.37 9.37L13.37 9.37Q13.37 8.90 13.08 8.64L13.08 8.64L13.08 8.64Q12.80 8.39 12.25 8.39L12.25 8.39L12.25 8.39Q11.83 8.39 11.56 8.53L11.56 8.53L11.56 8.53Q11.28 8.67 11.19 8.92L11.19 8.92L11.19 8.92Q11.10 9.11 10.91 9.10L10.91 9.10L9.35 8.90L9.35 8.90Q9.24 8.89 9.18 8.84L9.18 8.84L9.18 8.84Q9.11 8.79 9.13 8.71L9.13 8.71L9.13 8.71Q9.20 8.13 9.61 7.67L9.61 7.67L9.61 7.67Q10.02 7.21 10.70 6.95L10.70 6.95L10.70 6.95Q11.38 6.69 12.21 6.69L12.21 6.69ZM11.93 12.64L11.93 12.64Q12.53 12.64 12.95 12.32L12.95 12.32L12.95 12.32Q13.37 12.00 13.37 11.49L13.37 11.49L13.37 11.00L13.37 11.00Q13.37 10.92 13.29 10.92L13.29 10.92L12.29 10.92L12.29 10.92Q11.66 10.92 11.30 11.16L11.30 11.16L11.30 11.16Q10.93 11.40 10.93 11.83L10.93 11.83L10.93 11.83Q10.93 12.21 11.21 12.43L11.21 12.43L11.21 12.43Q11.48 12.64 11.93 12.64L11.93 12.64ZM20.47 6.69L20.47 6.69Q21.59 6.69 22.27 7.38L22.27 7.38L22.27 7.38Q22.96 8.06 22.96 9.24L22.96 9.24L22.96 13.76L22.96 13.76Q22.96 14 22.72 14L22.72 14L21.22 14L21.22 14Q20.99 14 20.99 13.76L20.99 13.76L20.99 9.65L20.99 9.65Q20.99 9.09 20.68 8.74L20.68 8.74L20.68 8.74Q20.37 8.39 19.85 8.39L19.85 8.39L19.85 8.39Q19.33 8.39 19.01 8.74L19.01 8.74L19.01 8.74Q18.69 9.09 18.69 9.65L18.69 9.65L18.69 13.76L18.69 13.76Q18.69 14 18.45 14L18.45 14L16.95 14L16.95 14Q16.72 14 16.72 13.76L16.72 13.76L16.72 7.04L16.72 7.04Q16.72 6.80 16.95 6.80L16.95 6.80L18.45 6.80L18.45 6.80Q18.69 6.80 18.69 7.04L18.69 7.04L18.69 7.43L18.69 7.43Q18.69 7.49 18.72 7.50L18.72 7.50L18.72 7.50Q18.75 7.52 18.77 7.48L18.77 7.48L18.77 7.48Q19.35 6.69 20.47 6.69L20.47 6.69ZM28.71 4.44L28.71 4.44Q28.71 4.20 28.95 4.20L28.95 4.20L30.45 4.20L30.45 4.20Q30.69 4.20 30.69 4.44L30.69 4.44L30.69 13.76L30.69 13.76Q30.69 14 30.45 14L30.45 14L28.95 14L28.95 14Q28.71 14 28.71 13.76L28.71 13.76L28.71 13.38L28.71 13.38Q28.71 13.33 28.68 13.32L28.68 13.32L28.68 13.32Q28.64 13.31 28.62 13.36L28.62 13.36L28.62 13.36Q28.04 14.11 27.02 14.11L27.02 14.11L27.02 14.11Q26.07 14.11 25.33 13.54L25.33 13.54L25.33 13.54Q24.60 12.98 24.32 12.05L24.32 12.05L24.32 12.05Q24.08 11.38 24.08 10.37L24.08 10.37L24.08 10.37Q24.08 9.34 24.35 8.64L24.35 8.64L24.35 8.64Q24.65 7.74 25.36 7.21L25.36 7.21L25.36 7.21Q26.07 6.68 27.02 6.68L27.02 6.68L27.02 6.68Q28.06 6.68 28.62 7.36L28.62 7.36L28.62 7.36Q28.64 7.41 28.68 7.39L28.68 7.39L28.68 7.39Q28.71 7.38 28.71 7.32L28.71 7.32L28.71 4.44ZM28.42 11.79L28.42 11.79Q28.70 11.27 28.70 10.40L28.70 10.40L28.70 10.40Q28.70 9.48 28.41 8.96L28.41 8.96L28.41 8.96Q28.06 8.41 27.47 8.41L27.47 8.41L27.47 8.41Q26.82 8.41 26.49 8.95L26.49 8.95L26.49 8.95Q26.15 9.51 26.15 10.42L26.15 10.42L26.15 10.42Q26.15 11.24 26.45 11.79L26.45 11.79L26.45 11.79Q26.78 12.39 27.47 12.39L27.47 12.39L27.47 12.39Q28.08 12.39 28.42 11.79L28.42 11.79ZM32.13 16.79L32.13 16.79Q32.03 16.79 32.03 16.55L32.03 16.55L32.03 15.40L32.03 15.40Q32.03 15.16 32.12 15.16L32.12 15.16L32.20 15.16L32.20 15.16Q33.07 15.16 33.44 14.95L33.44 14.95L33.44 14.95Q33.81 14.73 33.98 14.06L33.98 14.06L33.98 14.06Q34.01 13.99 33.98 13.94L33.98 13.94L31.72 7.07L31.72 7.07Q31.71 7.04 31.71 6.99L31.71 6.99L31.71 6.99Q31.71 6.90 31.77 6.85L31.77 6.85L31.77 6.85Q31.82 6.80 31.92 6.80L31.92 6.80L33.53 6.80L33.53 6.80Q33.73 6.80 33.80 7L33.80 7L34.94 11.17L34.94 11.17Q34.96 11.23 35 11.23L35 11.23L35 11.23Q35.04 11.23 35.06 11.17L35.06 11.17L36.15 7.01L36.15 7.01Q36.19 6.80 36.41 6.80L36.41 6.80L38.02 6.80L38.02 6.80Q38.15 6.80 38.21 6.88L38.21 6.88L38.21 6.88Q38.26 6.96 38.22 7.07L38.22 7.07L35.83 14.27L35.83 14.27Q35.48 15.29 35.11 15.80L35.11 15.80L35.11 15.80Q34.75 16.31 34.09 16.55L34.09 16.55L34.09 16.55Q33.43 16.79 32.23 16.79L32.23 16.79L32.13 16.79ZM46.21 4.19L46.21 4.19Q47.14 4.19 47.84 4.56L47.84 4.56L47.84 4.56Q48.54 4.94 48.92 5.63L48.92 5.63L48.92 5.63Q49.31 6.33 49.31 7.22L49.31 7.22L49.31 7.22Q49.31 8.11 48.91 8.78L48.91 8.78L48.91 8.78Q48.51 9.45 47.79 9.82L47.79 9.82L47.79 9.82Q47.07 10.19 46.13 10.19L46.13 10.19L44.16 10.19L44.16 10.19Q44.07 10.19 44.07 10.28L44.07 10.28L44.07 13.76L44.07 13.76Q44.07 14 43.83 14L43.83 14L42.34 14L42.34 14Q42.10 14 42.10 13.76L42.10 13.76L42.10 4.42L42.10 4.42Q42.10 4.19 42.34 4.19L42.34 4.19L46.21 4.19ZM45.92 8.61L45.92 8.61Q46.56 8.61 46.96 8.24L46.96 8.24L46.96 8.24Q47.35 7.87 47.35 7.27L47.35 7.27L47.35 7.27Q47.35 6.65 46.96 6.27L46.96 6.27L46.96 6.27Q46.56 5.89 45.92 5.89L45.92 5.89L44.16 5.89L44.16 5.89Q44.07 5.89 44.07 5.98L44.07 5.98L44.07 8.53L44.07 8.53Q44.07 8.61 44.16 8.61L44.16 8.61L45.92 8.61ZM53.87 12.45L53.87 12.45Q54.80 12.40 55.29 11.80L55.29 11.80L55.29 11.80Q55.37 11.70 55.47 11.70L55.47 11.70L55.47 11.70Q55.55 11.70 55.62 11.77L55.62 11.77L56.42 12.54L56.42 12.54Q56.50 12.63 56.50 12.71L56.50 12.71L56.50 12.71Q56.50 12.81 56.45 12.88L56.45 12.88L56.45 12.88Q55.99 13.45 55.27 13.78L55.27 13.78L55.27 13.78Q54.54 14.11 53.69 14.11L53.69 14.11L53.69 14.11Q52.40 14.11 51.55 13.45L51.55 13.45L51.55 13.45Q50.71 12.80 50.41 11.65L50.41 11.65L50.41 11.65Q50.25 11.03 50.25 10.35L50.25 10.35L50.25 10.35Q50.25 9.53 50.40 8.97L50.40 8.97L50.40 8.97Q50.68 7.94 51.53 7.31L51.53 7.31L51.53 7.31Q52.37 6.68 53.54 6.68L53.54 6.68L53.54 6.68Q54.91 6.68 55.71 7.49L55.71 7.49L55.71 7.49Q56.52 8.30 56.76 9.77L56.76 9.77L56.76 9.77Q56.81 10.23 56.84 10.79L56.84 10.79L56.84 10.79Q56.84 11.03 56.60 11.03L56.60 11.03L52.30 11.03L52.30 11.03Q52.22 11.03 52.22 11.12L52.22 11.12L52.22 11.12Q52.26 11.41 52.32 11.55L52.32 11.55L52.32 11.55Q52.46 11.98 52.87 12.21L52.87 12.21L52.87 12.21Q53.28 12.45 53.87 12.45L53.87 12.45ZM53.51 8.39L53.51 8.39Q53.06 8.39 52.76 8.60L52.76 8.60L52.76 8.60Q52.46 8.82 52.35 9.21L52.35 9.21L52.35 9.21Q52.28 9.48 52.26 9.56L52.26 9.56L52.26 9.56Q52.25 9.65 52.33 9.65L52.33 9.65L54.71 9.65L54.71 9.65Q54.78 9.65 54.78 9.59L54.78 9.59L54.78 9.59Q54.78 9.44 54.73 9.27L54.73 9.27L54.73 9.27Q54.60 8.86 54.29 8.62L54.29 8.62L54.29 8.62Q53.98 8.39 53.51 8.39L53.51 8.39ZM61.64 6.71L61.64 6.71Q62.09 6.71 62.38 6.87L62.38 6.87L62.38 6.87Q62.55 6.96 62.51 7.17L62.51 7.17L62.24 8.64L62.24 8.64Q62.23 8.76 62.17 8.79L62.17 8.79L62.17 8.79Q62.10 8.82 61.96 8.79L61.96 8.79L61.96 8.79Q61.74 8.74 61.56 8.74L61.56 8.74L61.56 8.74Q61.46 8.74 61.24 8.76L61.24 8.76L61.24 8.76Q60.73 8.81 60.38 9.13L60.38 9.13L60.38 9.13Q60.03 9.46 60.03 10.01L60.03 10.01L60.03 13.76L60.03 13.76Q60.03 14 59.79 14L59.79 14L58.30 14L58.30 14Q58.06 14 58.06 13.76L58.06 13.76L58.06 7.04L58.06 7.04Q58.06 6.80 58.30 6.80L58.30 6.80L59.79 6.80L59.79 6.80Q60.03 6.80 60.03 7.04L60.03 7.04L60.03 7.48L60.03 7.48Q60.03 7.53 60.06 7.55L60.06 7.55L60.06 7.55Q60.09 7.56 60.13 7.52L60.13 7.52L60.13 7.52Q60.69 6.71 61.64 6.71L61.64 6.71ZM66.89 12.45L66.89 12.45Q67.82 12.40 68.31 11.80L68.31 11.80L68.31 11.80Q68.39 11.70 68.49 11.70L68.49 11.70L68.49 11.70Q68.57 11.70 68.64 11.77L68.64 11.77L69.44 12.54L69.44 12.54Q69.52 12.63 69.52 12.71L69.52 12.71L69.52 12.71Q69.52 12.81 69.47 12.88L69.47 12.88L69.47 12.88Q69.01 13.45 68.28 13.78L68.28 13.78L68.28 13.78Q67.56 14.11 66.71 14.11L66.71 14.11L66.71 14.11Q65.42 14.11 64.58 13.45L64.58 13.45L64.58 13.45Q63.73 12.80 63.43 11.65L63.43 11.65L63.43 11.65Q63.27 11.03 63.27 10.35L63.27 10.35L63.27 10.35Q63.27 9.53 63.42 8.97L63.42 8.97L63.42 8.97Q63.70 7.94 64.55 7.31L64.55 7.31L64.55 7.31Q65.39 6.68 66.56 6.68L66.56 6.68L66.56 6.68Q67.93 6.68 68.73 7.49L68.73 7.49L68.73 7.49Q69.54 8.30 69.78 9.77L69.78 9.77L69.78 9.77Q69.83 10.23 69.86 10.79L69.86 10.79L69.86 10.79Q69.86 11.03 69.62 11.03L69.62 11.03L65.32 11.03L65.32 11.03Q65.24 11.03 65.24 11.12L65.24 11.12L65.24 11.12Q65.28 11.41 65.34 11.55L65.34 11.55L65.34 11.55Q65.48 11.98 65.89 12.21L65.89 12.21L65.89 12.21Q66.30 12.45 66.89 12.45L66.89 12.45ZM66.53 8.39L66.53 8.39Q66.08 8.39 65.78 8.60L65.78 8.60L65.78 8.60Q65.48 8.82 65.37 9.21L65.37 9.21L65.37 9.21Q65.30 9.48 65.28 9.56L65.28 9.56L65.28 9.56Q65.27 9.65 65.35 9.65L65.35 9.65L67.73 9.65L67.73 9.65Q67.80 9.65 67.80 9.59L67.80 9.59L67.80 9.59Q67.80 9.44 67.75 9.27L67.75 9.27L67.75 9.27Q67.62 8.86 67.31 8.62L67.31 8.62L67.31 8.62Q67.00 8.39 66.53 8.39L66.53 8.39ZM70.92 14L70.92 14Q70.69 14 70.69 13.76L70.69 13.76L70.69 12.38L70.69 12.38Q70.69 12.21 70.80 12.08L70.80 12.08L73.91 8.68L73.91 8.68Q73.93 8.64 73.93 8.61L73.93 8.61L73.93 8.61Q73.92 8.58 73.86 8.58L73.86 8.58L71.01 8.58L71.01 8.58Q70.77 8.58 70.77 8.34L70.77 8.34L70.77 7.04L70.77 7.04Q70.77 6.80 71.01 6.80L71.01 6.80L76.10 6.80L76.10 6.80Q76.34 6.80 76.34 7.04L76.34 7.04L76.34 8.41L76.34 8.41Q76.34 8.58 76.23 8.71L76.23 8.71L73.02 12.11L73.02 12.11Q73.00 12.15 73.00 12.18L73.00 12.18L73.00 12.18Q73.01 12.21 73.07 12.21L73.07 12.21L76.17 12.21L76.17 12.21Q76.41 12.21 76.41 12.45L76.41 12.45L76.41 13.76L76.41 13.76Q76.41 14 76.17 14L76.17 14L70.92 14Z"></path></g><!----><!----></svg>
